<mxfile host="app.diagrams.net" modified="2020-08-26T10:22:14.502Z" agent="5.0 (Macintosh; Intel Mac OS X 10_15_5) AppleWebKit/537.36 (KHTML, like Gecko) Chrome/84.0.4147.135 Safari/537.36" etag="m6UN-5LdH02PapyhoFhL" version="13.6.5" type="github">
  <diagram id="a2OO5_XoCAEclmJaOGbQ" name="Page-1">
    <mxGraphModel dx="1261" dy="843" grid="1" gridSize="10" guides="1" tooltips="1" connect="1" arrows="1" fold="1" page="1" pageScale="1" pageWidth="827" pageHeight="1169" math="0" shadow="0">
      <root>
        <mxCell id="0" />
        <mxCell id="1" parent="0" />
        <mxCell id="f_jPBdqohyxs24n2NIzw-2" value="" style="endArrow=none;html=1;dashed=1;" parent="1" edge="1">
          <mxGeometry width="50" height="50" relative="1" as="geometry">
            <mxPoint x="370" y="720" as="sourcePoint" />
            <mxPoint x="370" y="80" as="targetPoint" />
          </mxGeometry>
        </mxCell>
        <mxCell id="f_jPBdqohyxs24n2NIzw-3" value="&lt;b&gt;&lt;font style=&quot;font-size: 14px&quot;&gt;读&lt;/font&gt;&lt;/b&gt;" style="text;html=1;strokeColor=none;fillColor=none;align=center;verticalAlign=middle;whiteSpace=wrap;rounded=0;" parent="1" vertex="1">
          <mxGeometry x="190" y="100" width="90" height="20" as="geometry" />
        </mxCell>
        <mxCell id="f_jPBdqohyxs24n2NIzw-4" value="&lt;b&gt;&lt;font style=&quot;font-size: 14px&quot;&gt;写&lt;/font&gt;&lt;/b&gt;" style="text;html=1;strokeColor=none;fillColor=none;align=center;verticalAlign=middle;whiteSpace=wrap;rounded=0;" parent="1" vertex="1">
          <mxGeometry x="470" y="100" width="90" height="20" as="geometry" />
        </mxCell>
        <mxCell id="f_jPBdqohyxs24n2NIzw-9" style="rounded=0;orthogonalLoop=1;jettySize=auto;html=1;exitX=0.5;exitY=1;exitDx=0;exitDy=0;entryX=0.5;entryY=0;entryDx=0;entryDy=0;" parent="1" source="f_jPBdqohyxs24n2NIzw-5" target="f_jPBdqohyxs24n2NIzw-7" edge="1">
          <mxGeometry relative="1" as="geometry" />
        </mxCell>
        <mxCell id="0CUJRHTORJeKaPp0CX7Q-3" style="rounded=0;orthogonalLoop=1;jettySize=auto;html=1;exitX=0.25;exitY=1;exitDx=0;exitDy=0;dashed=1;" parent="1" source="f_jPBdqohyxs24n2NIzw-5" target="0CUJRHTORJeKaPp0CX7Q-1" edge="1">
          <mxGeometry relative="1" as="geometry" />
        </mxCell>
        <mxCell id="0CUJRHTORJeKaPp0CX7Q-4" value="snapshot" style="edgeLabel;html=1;align=center;verticalAlign=middle;resizable=0;points=[];" parent="0CUJRHTORJeKaPp0CX7Q-3" vertex="1" connectable="0">
          <mxGeometry x="-0.0241" y="-1" relative="1" as="geometry">
            <mxPoint as="offset" />
          </mxGeometry>
        </mxCell>
        <mxCell id="f_jPBdqohyxs24n2NIzw-5" value="atlas(策略)" style="rounded=0;whiteSpace=wrap;html=1;" parent="1" vertex="1">
          <mxGeometry x="60" y="240" width="210" height="40" as="geometry" />
        </mxCell>
        <mxCell id="f_jPBdqohyxs24n2NIzw-10" style="rounded=0;orthogonalLoop=1;jettySize=auto;html=1;entryX=1;entryY=0.75;entryDx=0;entryDy=0;" parent="1" source="f_jPBdqohyxs24n2NIzw-6" target="f_jPBdqohyxs24n2NIzw-5" edge="1">
          <mxGeometry relative="1" as="geometry" />
        </mxCell>
        <mxCell id="f_jPBdqohyxs24n2NIzw-39" value="集成" style="edgeLabel;html=1;align=center;verticalAlign=middle;resizable=0;points=[];" parent="f_jPBdqohyxs24n2NIzw-10" vertex="1" connectable="0">
          <mxGeometry x="0.2351" y="4" relative="1" as="geometry">
            <mxPoint as="offset" />
          </mxGeometry>
        </mxCell>
        <mxCell id="f_jPBdqohyxs24n2NIzw-6" value="rule-core" style="rounded=0;whiteSpace=wrap;html=1;" parent="1" vertex="1">
          <mxGeometry x="324" y="310" width="90" height="40" as="geometry" />
        </mxCell>
        <mxCell id="f_jPBdqohyxs24n2NIzw-13" value="" style="rounded=0;orthogonalLoop=1;jettySize=auto;html=1;" parent="1" source="f_jPBdqohyxs24n2NIzw-7" target="f_jPBdqohyxs24n2NIzw-12" edge="1">
          <mxGeometry relative="1" as="geometry" />
        </mxCell>
        <mxCell id="f_jPBdqohyxs24n2NIzw-7" value="feature" style="rounded=0;whiteSpace=wrap;html=1;" parent="1" vertex="1">
          <mxGeometry x="150" y="340" width="110" height="40" as="geometry" />
        </mxCell>
        <mxCell id="f_jPBdqohyxs24n2NIzw-12" value="实时累积引擎" style="whiteSpace=wrap;html=1;rounded=0;fillColor=#fff2cc;strokeColor=#d6b656;" parent="1" vertex="1">
          <mxGeometry x="157.5" y="440" width="422.5" height="40" as="geometry" />
        </mxCell>
        <mxCell id="f_jPBdqohyxs24n2NIzw-14" value="" style="endArrow=none;html=1;" parent="1" edge="1">
          <mxGeometry width="50" height="50" relative="1" as="geometry">
            <mxPoint x="30" y="530" as="sourcePoint" />
            <mxPoint x="730" y="530" as="targetPoint" />
          </mxGeometry>
        </mxCell>
        <mxCell id="f_jPBdqohyxs24n2NIzw-57" value="" style="edgeStyle=none;rounded=0;orthogonalLoop=1;jettySize=auto;html=1;strokeColor=#FF9999;" parent="1" source="f_jPBdqohyxs24n2NIzw-15" target="f_jPBdqohyxs24n2NIzw-41" edge="1">
          <mxGeometry relative="1" as="geometry" />
        </mxCell>
        <mxCell id="f_jPBdqohyxs24n2NIzw-15" value="&lt;br&gt;redis(主)" style="shape=cylinder2;whiteSpace=wrap;html=1;boundedLbl=1;backgroundOutline=1;size=15;" parent="1" vertex="1">
          <mxGeometry x="440" y="570" width="60" height="70" as="geometry" />
        </mxCell>
        <mxCell id="f_jPBdqohyxs24n2NIzw-19" value="" style="endArrow=classic;html=1;" parent="1" target="f_jPBdqohyxs24n2NIzw-15" edge="1">
          <mxGeometry width="50" height="50" relative="1" as="geometry">
            <mxPoint x="260" y="480" as="sourcePoint" />
            <mxPoint x="180" y="620" as="targetPoint" />
          </mxGeometry>
        </mxCell>
        <mxCell id="f_jPBdqohyxs24n2NIzw-21" value="读" style="edgeLabel;html=1;align=center;verticalAlign=middle;resizable=0;points=[];" parent="f_jPBdqohyxs24n2NIzw-19" vertex="1" connectable="0">
          <mxGeometry x="-0.3988" y="-2" relative="1" as="geometry">
            <mxPoint as="offset" />
          </mxGeometry>
        </mxCell>
        <mxCell id="f_jPBdqohyxs24n2NIzw-23" value="" style="endArrow=classic;html=1;exitX=0.75;exitY=1;exitDx=0;exitDy=0;dashed=1;" parent="1" source="f_jPBdqohyxs24n2NIzw-12" target="f_jPBdqohyxs24n2NIzw-15" edge="1">
          <mxGeometry width="50" height="50" relative="1" as="geometry">
            <mxPoint x="525" y="470" as="sourcePoint" />
            <mxPoint x="262.96739130434776" y="570" as="targetPoint" />
          </mxGeometry>
        </mxCell>
        <mxCell id="f_jPBdqohyxs24n2NIzw-24" value="写" style="edgeLabel;html=1;align=center;verticalAlign=middle;resizable=0;points=[];" parent="f_jPBdqohyxs24n2NIzw-23" vertex="1" connectable="0">
          <mxGeometry x="-0.3988" y="-2" relative="1" as="geometry">
            <mxPoint as="offset" />
          </mxGeometry>
        </mxCell>
        <mxCell id="f_jPBdqohyxs24n2NIzw-25" value="事件接入" style="rounded=0;whiteSpace=wrap;html=1;fillColor=#f5f5f5;strokeColor=#666666;fontColor=#333333;" parent="1" vertex="1">
          <mxGeometry x="161.5" y="150" width="428.5" height="30" as="geometry" />
        </mxCell>
        <mxCell id="f_jPBdqohyxs24n2NIzw-27" value="前置过滤(事件过滤)" style="rounded=0;whiteSpace=wrap;html=1;" parent="1" vertex="1">
          <mxGeometry x="490" y="280" width="120" height="40" as="geometry" />
        </mxCell>
        <mxCell id="f_jPBdqohyxs24n2NIzw-28" value="" style="endArrow=classic;html=1;exitX=0.5;exitY=1;exitDx=0;exitDy=0;entryX=0.5;entryY=0;entryDx=0;entryDy=0;dashed=1;" parent="1" source="f_jPBdqohyxs24n2NIzw-25" target="f_jPBdqohyxs24n2NIzw-27" edge="1">
          <mxGeometry width="50" height="50" relative="1" as="geometry">
            <mxPoint x="535" y="480" as="sourcePoint" />
            <mxPoint x="314.5" y="590.0299401197606" as="targetPoint" />
          </mxGeometry>
        </mxCell>
        <mxCell id="f_jPBdqohyxs24n2NIzw-30" value="" style="endArrow=classic;html=1;exitX=0.5;exitY=1;exitDx=0;exitDy=0;entryX=0.75;entryY=0;entryDx=0;entryDy=0;dashed=1;" parent="1" source="f_jPBdqohyxs24n2NIzw-27" target="f_jPBdqohyxs24n2NIzw-12" edge="1">
          <mxGeometry width="50" height="50" relative="1" as="geometry">
            <mxPoint x="650" y="290" as="sourcePoint" />
            <mxPoint x="518.0250000000001" y="430" as="targetPoint" />
          </mxGeometry>
        </mxCell>
        <mxCell id="f_jPBdqohyxs24n2NIzw-31" value="集成" style="endArrow=classic;html=1;exitX=1;exitY=0.5;exitDx=0;exitDy=0;entryX=0;entryY=0.5;entryDx=0;entryDy=0;" parent="1" source="f_jPBdqohyxs24n2NIzw-6" target="f_jPBdqohyxs24n2NIzw-27" edge="1">
          <mxGeometry width="50" height="50" relative="1" as="geometry">
            <mxPoint x="536.5" y="390" as="sourcePoint" />
            <mxPoint x="528.0250000000001" y="440" as="targetPoint" />
          </mxGeometry>
        </mxCell>
        <mxCell id="f_jPBdqohyxs24n2NIzw-33" value="" style="endArrow=classic;html=1;exitX=0.5;exitY=1;exitDx=0;exitDy=0;entryX=0.5;entryY=0;entryDx=0;entryDy=0;" parent="1" source="f_jPBdqohyxs24n2NIzw-25" target="f_jPBdqohyxs24n2NIzw-5" edge="1">
          <mxGeometry width="50" height="50" relative="1" as="geometry">
            <mxPoint x="385.75" y="190" as="sourcePoint" />
            <mxPoint x="536.5" y="350" as="targetPoint" />
          </mxGeometry>
        </mxCell>
        <mxCell id="f_jPBdqohyxs24n2NIzw-40" value="&lt;br&gt;redis" style="shape=cylinder2;whiteSpace=wrap;html=1;boundedLbl=1;backgroundOutline=1;size=15;dashed=1;" parent="1" vertex="1">
          <mxGeometry x="210" y="570" width="60" height="70" as="geometry" />
        </mxCell>
        <mxCell id="f_jPBdqohyxs24n2NIzw-58" value="" style="edgeStyle=none;rounded=0;orthogonalLoop=1;jettySize=auto;html=1;strokeColor=#FF9999;" parent="1" source="f_jPBdqohyxs24n2NIzw-41" target="f_jPBdqohyxs24n2NIzw-40" edge="1">
          <mxGeometry relative="1" as="geometry" />
        </mxCell>
        <mxCell id="f_jPBdqohyxs24n2NIzw-41" value="&lt;br&gt;redis" style="shape=cylinder2;whiteSpace=wrap;html=1;boundedLbl=1;backgroundOutline=1;size=15;dashed=1;" parent="1" vertex="1">
          <mxGeometry x="300" y="570" width="60" height="70" as="geometry" />
        </mxCell>
        <mxCell id="f_jPBdqohyxs24n2NIzw-47" value="" style="endArrow=classic;html=1;exitX=0.25;exitY=1;exitDx=0;exitDy=0;" parent="1" source="f_jPBdqohyxs24n2NIzw-12" target="f_jPBdqohyxs24n2NIzw-40" edge="1">
          <mxGeometry width="50" height="50" relative="1" as="geometry">
            <mxPoint x="223.75" y="490" as="sourcePoint" />
            <mxPoint x="235.45000000000005" y="580" as="targetPoint" />
          </mxGeometry>
        </mxCell>
        <mxCell id="f_jPBdqohyxs24n2NIzw-48" value="读" style="edgeLabel;html=1;align=center;verticalAlign=middle;resizable=0;points=[];" parent="f_jPBdqohyxs24n2NIzw-47" vertex="1" connectable="0">
          <mxGeometry x="-0.3988" y="-2" relative="1" as="geometry">
            <mxPoint as="offset" />
          </mxGeometry>
        </mxCell>
        <mxCell id="f_jPBdqohyxs24n2NIzw-49" value="" style="endArrow=classic;html=1;exitX=0.25;exitY=1;exitDx=0;exitDy=0;entryX=0.5;entryY=0;entryDx=0;entryDy=0;entryPerimeter=0;" parent="1" source="f_jPBdqohyxs24n2NIzw-12" target="f_jPBdqohyxs24n2NIzw-41" edge="1">
          <mxGeometry width="50" height="50" relative="1" as="geometry">
            <mxPoint x="223.75" y="490" as="sourcePoint" />
            <mxPoint x="340" y="589.3589743589744" as="targetPoint" />
          </mxGeometry>
        </mxCell>
        <mxCell id="f_jPBdqohyxs24n2NIzw-50" value="读" style="edgeLabel;html=1;align=center;verticalAlign=middle;resizable=0;points=[];" parent="f_jPBdqohyxs24n2NIzw-49" vertex="1" connectable="0">
          <mxGeometry x="-0.3988" y="-2" relative="1" as="geometry">
            <mxPoint as="offset" />
          </mxGeometry>
        </mxCell>
        <mxCell id="f_jPBdqohyxs24n2NIzw-52" value="" style="group" parent="1" vertex="1" connectable="0">
          <mxGeometry x="690" y="120" width="145.75" height="50" as="geometry" />
        </mxCell>
        <mxCell id="f_jPBdqohyxs24n2NIzw-51" value="" style="group" parent="f_jPBdqohyxs24n2NIzw-52" vertex="1" connectable="0">
          <mxGeometry width="145.75" height="50" as="geometry" />
        </mxCell>
        <mxCell id="f_jPBdqohyxs24n2NIzw-38" value="" style="group;container=1;" parent="f_jPBdqohyxs24n2NIzw-51" vertex="1" connectable="0">
          <mxGeometry width="145.75" height="50" as="geometry">
            <mxRectangle x="690" y="120" width="50" height="40" as="alternateBounds" />
          </mxGeometry>
        </mxCell>
        <mxCell id="f_jPBdqohyxs24n2NIzw-35" value="" style="endArrow=classic;html=1;entryX=0.5;entryY=0;entryDx=0;entryDy=0;dashed=1;" parent="f_jPBdqohyxs24n2NIzw-38" edge="1">
          <mxGeometry width="50" height="50" relative="1" as="geometry">
            <mxPoint x="60" y="40" as="sourcePoint" />
            <mxPoint x="1.5" y="40" as="targetPoint" />
          </mxGeometry>
        </mxCell>
        <mxCell id="f_jPBdqohyxs24n2NIzw-36" value="同步" style="text;html=1;strokeColor=none;fillColor=none;align=center;verticalAlign=middle;whiteSpace=wrap;rounded=0;" parent="f_jPBdqohyxs24n2NIzw-38" vertex="1">
          <mxGeometry x="80" width="40" height="20" as="geometry" />
        </mxCell>
        <mxCell id="f_jPBdqohyxs24n2NIzw-37" value="异步" style="text;html=1;strokeColor=none;fillColor=none;align=center;verticalAlign=middle;whiteSpace=wrap;rounded=0;" parent="f_jPBdqohyxs24n2NIzw-38" vertex="1">
          <mxGeometry x="80" y="30" width="40" height="20" as="geometry" />
        </mxCell>
        <mxCell id="f_jPBdqohyxs24n2NIzw-34" value="" style="endArrow=classic;html=1;entryX=0.5;entryY=0;entryDx=0;entryDy=0;" parent="f_jPBdqohyxs24n2NIzw-38" edge="1">
          <mxGeometry width="50" height="50" relative="1" as="geometry">
            <mxPoint x="60" y="9.5" as="sourcePoint" />
            <mxPoint y="9.5" as="targetPoint" />
          </mxGeometry>
        </mxCell>
        <mxCell id="f_jPBdqohyxs24n2NIzw-53" value="" style="endArrow=classic;html=1;entryX=0.5;entryY=0;entryDx=0;entryDy=0;strokeColor=#FF9999;" parent="1" edge="1">
          <mxGeometry width="50" height="50" relative="1" as="geometry">
            <mxPoint x="748.5" y="190" as="sourcePoint" />
            <mxPoint x="690" y="190" as="targetPoint" />
          </mxGeometry>
        </mxCell>
        <mxCell id="f_jPBdqohyxs24n2NIzw-54" value="sync" style="text;html=1;strokeColor=none;fillColor=none;align=center;verticalAlign=middle;whiteSpace=wrap;rounded=0;" parent="1" vertex="1">
          <mxGeometry x="770" y="180" width="40" height="20" as="geometry" />
        </mxCell>
        <mxCell id="0CUJRHTORJeKaPp0CX7Q-1" value="&lt;br&gt;Hive" style="shape=cylinder2;whiteSpace=wrap;html=1;boundedLbl=1;backgroundOutline=1;size=15;" parent="1" vertex="1">
          <mxGeometry x="60" y="565" width="60" height="80" as="geometry" />
        </mxCell>
      </root>
    </mxGraphModel>
  </diagram>
</mxfile>
